<?xml version="1.0" encoding="UTF-8" standalone="no" ?>
<!DOCTYPE svg PUBLIC "-//W3C//DTD SVG 1.1//EN" "http://www.w3.org/Graphics/SVG/1.1/DTD/svg11.dtd">
<svg xmlns="http://www.w3.org/2000/svg" xmlns:xlink="http://www.w3.org/1999/xlink" version="1.1" width="1280" height="1024" viewBox="0 0 1280 1024" xml:space="preserve">
<desc>Created with Fabric.js 3.6.3</desc>
<defs>
</defs>
<g transform="matrix(1.9662058371735787 0 0 1.9662058371735787 640.2456813819576 512.1966205837173)" id="background-logo"  >
<rect style="stroke: none; stroke-width: 1; stroke-dasharray: none; stroke-linecap: butt; stroke-dashoffset: 0; stroke-linejoin: miter; stroke-miterlimit: 4; fill: rgb(255,255,255); fill-rule: nonzero; opacity: 1;"  paint-order="stroke"  x="-325" y="-260" rx="0" ry="0" width="650" height="520" />
</g>
<g transform="matrix(1.9699870022450665 0 0 1.9699870022450665 640.2456813819576 395.3986253974706)" id="logo-logo"  >
<g style=""  paint-order="stroke"   >
		<g transform="matrix(1.5964726307538892 0 0 -1.5964726307538892 0 0)"  >
<path style="stroke: none; stroke-width: 1; stroke-dasharray: none; stroke-linecap: butt; stroke-dashoffset: 0; stroke-linejoin: miter; stroke-miterlimit: 4; fill: rgb(64,131,180); fill-rule: nonzero; opacity: 1;"  paint-order="stroke"  transform=" translate(0, -83.9995)" d="m 0 0 c -46.318 0 -84.003 37.68 -84.003 83.999 c 0 46.319 37.685 84.002 84.003 84.002 c 46.317 0 84 -37.683 84 -84.002 C 84 37.68 46.317 0 0 0 m 0 172.694 c -48.907 0 -88.695 -39.788 -88.695 -88.695 c 0 -48.906 39.788 -88.694 88.695 -88.694 c 48.904 0 88.695 39.788 88.695 88.694 c 0 48.907 -39.791 88.695 -88.695 88.695" stroke-linecap="round" />
</g>
		<g transform="matrix(1.5964726307538892 0 0 -1.5964726307538892 -0.001117530841554526 0.0012771781046296837)"  >
<linearGradient id="SVGID_1_242123" gradientUnits="userSpaceOnUse" gradientTransform="matrix(-0.000007 -160.10899 -160.10899 0.000007 162.30322 211.3418)"  x1="0" y1="0" x2="1" y2="0">
<stop offset="0%" style="stop-color:rgb(55,105,171);stop-opacity: 1"/>
<stop offset="100%" style="stop-color:rgb(66,156,69);stop-opacity: 1"/>
</linearGradient>
<path style="stroke: none; stroke-width: 1; stroke-dasharray: none; stroke-linecap: butt; stroke-dashoffset: 0; stroke-linejoin: miter; stroke-miterlimit: 4; fill: url(#SVGID_1_242123); fill-rule: nonzero; opacity: 1;"  paint-order="stroke"  transform=" translate(-162.30399999999997, -130.152)" d="m 85.342 130.153 c 0 -42.503 34.46 -76.963 76.959 -76.963 v 0 c 42.509 0 76.965 34.46 76.965 76.963 v 0 c 0 19.861 -7.525 37.962 -19.877 51.615 v 0 c -1.736 -5.553 -6.917 -9.583 -13.043 -9.583 v 0 c -7.544 0 -13.658 6.117 -13.658 13.66 v 0 c 0 5.004 2.698 9.365 6.71 11.744 v 0 c -11 6.066 -23.644 9.525 -37.097 9.525 v 0 c -42.499 0 -76.959 -34.454 -76.959 -76.961 m 76.959 61.718 c 0 0 -0.646 -5.628 -1.626 -15.08 v 0 c 3.63 -4.297 17.233 -12.707 24.567 -17.111 v 0 c 0 0 -7.698 7.089 -9.899 9.533 v 0 c -2.201 2.444 -6.967 8.066 -6.967 8.066 v 0 c 0 0 1.783 3.982 3.42 5.623 v 0 c 16.787 -10.792 31.943 -25.668 31.943 -25.668 v 0 c 0 0 -14.178 -2.265 -20.206 -4.889 v 0 c 0 0 -15.813 11.979 -21.232 15.889 v 0 c 0 0 -16.497 -11.248 -21.793 -15.889 v 0 c 0 0 -15.886 12.615 -19.555 16.949 v 0 c 6.356 2.816 15.615 7.975 15.615 7.975 v 0 l 4.592 -0.315 l -3.584 -7.822 c 0 0 19.595 22.251 24.725 22.739 M 93.407 130.153 c 0 16.358 5.712 31.374 15.236 43.191 v 0 c 4.595 -3.857 10.101 -10.782 12.8 -12.442 v 0 c 3.179 -1.956 6.597 -9.045 6.843 -11.489 v 0 c 0.245 -2.445 3.18 -19.26 3.18 -19.26 v 0 c 0 0 0.976 8.992 1.222 11.682 v 0 c 0.244 2.689 0.244 3.666 0 7.578 v 0 c 0 0 6.356 -4.4 11.244 -7.091 v 0 c 4.888 -2.687 10.019 -5.693 14.421 -10.3 v 0 c 4.402 -4.61 11.49 -6.321 11.49 -6.321 v 0 c 0 0 -6.846 6.117 -12.957 12.592 v 0 c -6.111 6.476 -10.598 11.12 -10.598 11.12 v 0 c 0 0 8.885 9.045 14.265 11.978 v 0 l 4.643 -10.998 c 0 0 7.826 -0.736 11.003 -2.203 v 0 l 3.176 -11.587 c 0 0 7.091 -0.531 15.156 -6.45 v 0 c 0 0 -4.644 9.482 -9.777 16.57 v 0 c 0 0 7.388 2.789 12.222 3.67 v 0 c 6.723 1.222 21.267 -10.149 21.267 -10.149 v 0 c 0 0 -4.057 5.557 -6.723 8.682 v 0 c 2.881 2.167 8.851 6.191 14.065 8.485 v 0 c 3.604 -8.36 5.615 -17.574 5.615 -27.258 v 0 c 0 -15.642 -5.225 -30.064 -14.008 -41.627 v 0 c -3.9 4.835 -5.795 11.307 -5.795 11.307 v 0 l 6.356 0.284 c -5.259 2.565 -5.621 12.873 -5.621 12.873 v 0 l 4.154 0.979 c -4.644 4.154 -5.866 12.956 -5.866 12.956 v 0 h 3.912 c 0 0 -5.379 5.622 -8.31 12.71 v 0 c -0.491 -7.823 -9.291 -17.356 -9.291 -17.356 v 0 l 5.869 1.954 c 0 0 -5.869 -10.754 -8.313 -13.934 v 0 h 4.888 c 0 0 -2.689 -10.267 -6.355 -14.176 v 0 l 5.378 1.465 c 0 0 -4.156 -13.932 -7.087 -17.843 v 0 l 7.454 1.712 c 0 0 -1.763 -6.473 -4.034 -12.199 v 0 c -1.478 -0.783 -2.991 -1.51 -4.529 -2.187 v 0 c -4.872 1.834 -10.137 6.076 -10.137 6.076 v 0 l 5.866 4.154 c 0 0 -6.356 3.911 -10.022 8.069 v 0 l 5.866 0.73 c -3.667 3.18 -6.602 11.488 -6.602 11.488 v 0 l 6.602 -0.487 c -2.689 3.667 -7.088 11.245 -7.088 11.245 v 0 l 4.399 1.467 c 0 0 -4.155 3.911 -7.332 11.244 v 0 c -2.202 -5.378 -7.578 -11.487 -7.578 -11.487 v 0 h 3.788 c 0 0 -2.733 -6.846 -5.463 -11.247 v 0 h 4.627 c 0 0 -1.897 -8.801 -4.627 -12.711 v 0 h 6.32 c 0 0 -6 -10.129 -10.755 -14.423 v 0 h 4.435 c 0 0 -0.98 -4.891 -5.17 -8.715 v 0 c -5.917 5.49 -10.022 13.85 -10.022 13.85 v 0 l 7.333 0.735 c -3.667 3.666 -8.311 10.997 -8.311 10.997 v 0 l 4.892 1.224 c -2.934 3.419 -6.848 10.837 -6.848 10.837 v 0 l 4.156 1.63 c -3.667 3.909 -4.889 9.043 -4.889 9.043 v 0 l 2.935 0.977 c 0 0 -1.713 5.133 -6.602 12.466 v 0 c -1.711 -5.865 -6.843 -9.777 -6.843 -9.777 v 0 l 3.422 -1.709 c -3.666 -5.624 -7.333 -10.023 -7.333 -10.023 v 0 h 5.379 c 0 0 -3.18 -11 -5.379 -15.156 v 0 h 4.399 c 0 0 -3.445 -7.05 -6.576 -10.475 v 0 c -4.02 4.951 -6.379 13.896 -6.379 13.896 v 0 l 5.131 0.978 c -3.173 3.421 -7.088 10.27 -7.088 10.27 v 0 l 3.915 1.926 c -2.448 3.883 -4.892 14.695 -4.892 14.695 v 0 h 3.912 c -1.958 2.931 -4.889 11.295 -4.889 11.295 v 0 l 4.157 1.869 c 0 0 -5.38 7.858 -7.582 17.391 v 0 c -3.909 -8.557 -6.598 -15.053 -9.532 -19.26 v 0 h 4.767 c 0 0 -2.81 -5.671 -6.234 -10.315 v 0 h 5.501 c -2.077 -7.581 -7.7 -14.672 -7.7 -14.672 v 0 l 4.156 -1.003 c 0 0 -1.578 -3.122 -3.247 -5.122 v 0 c -4.744 9.35 -7.433 19.914 -7.433 31.112" stroke-linecap="round" />
</g>
</g>
</g>
<g transform="matrix(1.9699870022450665 0 0 1.9699870022450665 636.3569270395259 798.0505043436731)" id="text-logo-path"  >
<path style="stroke: none; stroke-width: 0; stroke-dasharray: none; stroke-linecap: butt; stroke-dashoffset: 0; stroke-linejoin: miter; stroke-miterlimit: 4; fill: rgb(64,131,180); fill-rule: nonzero; opacity: 1;"  paint-order="stroke"  transform=" translate(-201.345, 32.76)" d="M 0.56 -0.47 L 0.56 -0.47 L 12.22 -65.05 Q 12.31 -65.42 12.69 -65.42 L 12.69 -65.42 L 26.32 -65.42 Q 26.7 -65.42 26.79 -65.05 L 26.79 -65.05 L 37.98 -0.47 Q 38.07 0 37.6 0 L 37.6 0 L 27.17 0 Q 26.79 0 26.7 -0.47 L 26.7 -0.47 L 25.66 -7.33 L 12.88 -7.33 L 11.84 -0.47 Q 11.75 0 11.37 0 L 11.37 0 L 0.94 0 Q 0.56 0 0.56 -0.47 Z M 18.99 -43.8 L 14.76 -17.39 L 23.78 -17.39 L 19.93 -43.8 L 19.36 -47.28 L 18.99 -43.8 Z M 61.1 0 L 44.27 0 Q 43.9 0 43.9 -0.47 L 43.9 -0.47 L 44.09 -65.05 Q 44.09 -65.42 44.46 -65.42 L 44.46 -65.42 L 62.51 -65.42 Q 67.87 -65.42 72.1 -62.84 Q 76.33 -60.25 78.77 -56.02 Q 81.22 -51.79 81.22 -46.81 L 81.22 -46.81 Q 81.22 -42.77 79.38 -39.29 Q 77.55 -35.81 75.01 -33.65 L 75.01 -33.65 Q 77.74 -30.93 79.24 -27.35 Q 80.75 -23.78 80.75 -19.83 L 80.75 -19.83 Q 80.75 -14.38 78.11 -9.87 Q 75.48 -5.36 71.02 -2.68 Q 66.55 0 61.1 0 L 61.1 0 Z M 55.37 -54.24 L 55.37 -39.48 L 62.51 -39.48 Q 65.8 -39.48 67.82 -41.78 Q 69.84 -44.09 69.84 -46.81 L 69.84 -46.81 Q 69.84 -49.82 67.68 -52.03 Q 65.52 -54.24 62.51 -54.24 L 62.51 -54.24 L 55.37 -54.24 Z M 55.37 -28.11 L 55.27 -11.47 L 61.1 -11.47 Q 64.48 -11.47 66.93 -13.96 Q 69.37 -16.45 69.37 -19.83 L 69.37 -19.83 Q 69.37 -23.22 66.93 -25.66 Q 64.48 -28.11 61.1 -28.11 L 61.1 -28.11 L 55.37 -28.11 Z M 104.81 -0.09 L 87.98 0 Q 87.51 0 87.51 -0.47 L 87.51 -0.47 L 87.7 -65.05 Q 87.7 -65.42 88.08 -65.42 L 88.08 -65.42 L 105.66 -65.52 Q 110.83 -65.61 115.1 -63.07 Q 119.38 -60.54 121.92 -56.26 Q 124.46 -51.98 124.46 -46.81 L 124.46 -46.81 L 124.46 -19.83 Q 124.46 -14.38 121.82 -9.92 Q 119.19 -5.45 114.77 -2.82 Q 110.36 -0.19 104.81 -0.09 L 104.81 -0.09 Z M 99.08 -54.14 L 98.98 -11.56 L 104.81 -11.56 Q 108.29 -11.56 110.68 -14.01 Q 113.08 -16.45 113.08 -19.83 L 113.08 -19.83 L 113.08 -46.91 Q 113.08 -49.91 110.87 -52.12 Q 108.66 -54.33 105.66 -54.24 L 105.66 -54.24 L 99.08 -54.14 Z M 142.97 0 L 132.35 0 Q 131.88 0 131.88 -0.47 L 131.88 -0.47 L 131.98 -65.05 Q 131.98 -65.42 132.35 -65.42 L 132.35 -65.42 L 142.88 -65.42 Q 143.26 -65.42 143.26 -65.05 L 143.26 -65.05 L 143.35 -0.47 Q 143.35 0 142.97 0 L 142.97 0 Z M 168.82 0.94 L 168.82 0.94 Q 163.75 0.94 159.61 -1.6 Q 155.48 -4.14 152.98 -8.41 Q 150.49 -12.69 150.49 -17.95 L 150.49 -17.95 L 150.49 -47.75 Q 150.49 -52.83 152.98 -57.1 Q 155.48 -61.38 159.66 -63.92 Q 163.84 -66.46 168.82 -66.46 L 168.82 -66.46 Q 173.99 -66.46 178.18 -63.97 Q 182.36 -61.48 184.8 -57.25 Q 187.25 -53.02 187.25 -47.75 L 187.25 -47.75 L 187.25 -43.43 Q 187.25 -43.05 186.78 -43.05 L 186.78 -43.05 L 176.25 -43.05 Q 175.87 -43.05 175.87 -43.43 L 175.87 -43.43 L 175.87 -47 Q 175.87 -50.57 173.85 -52.92 Q 171.83 -55.27 168.82 -55.27 L 168.82 -55.27 Q 166.1 -55.27 163.98 -53.02 Q 161.87 -50.76 161.87 -47.75 L 161.87 -47.75 L 161.87 -17.95 Q 161.87 -14.85 163.94 -12.64 Q 166 -10.43 168.82 -10.43 L 168.82 -10.43 Q 171.83 -10.43 173.85 -12.6 Q 175.87 -14.76 175.87 -17.95 L 175.87 -17.95 L 175.87 -22.56 L 169.29 -22.56 Q 168.82 -22.56 168.82 -23.03 L 168.82 -23.03 L 168.82 -33.56 Q 168.82 -34.03 169.29 -34.03 L 169.29 -34.03 L 186.87 -34.03 Q 187.25 -34.03 187.25 -33.56 L 187.25 -33.56 L 187.25 -17.95 Q 187.25 -12.69 184.76 -8.41 Q 182.27 -4.14 178.13 -1.6 Q 173.99 0.94 168.82 0.94 Z M 190.44 -0.47 L 190.44 -0.47 L 202.1 -65.05 Q 202.19 -65.42 202.57 -65.42 L 202.57 -65.42 L 216.2 -65.42 Q 216.58 -65.42 216.67 -65.05 L 216.67 -65.05 L 227.86 -0.47 Q 227.95 0 227.48 0 L 227.48 0 L 217.05 0 Q 216.67 0 216.58 -0.47 L 216.58 -0.47 L 215.54 -7.33 L 202.76 -7.33 L 201.72 -0.47 Q 201.63 0 201.25 0 L 201.25 0 L 190.82 0 Q 190.44 0 190.44 -0.47 Z M 208.87 -43.8 L 204.64 -17.39 L 213.66 -17.39 L 209.81 -43.8 L 209.24 -47.28 L 208.87 -43.8 Z M 244.02 0 L 234.62 0 Q 233.87 0 233.87 -0.66 L 233.87 -0.66 L 233.78 -64.67 Q 233.78 -65.42 234.53 -65.42 L 234.53 -65.42 L 242.99 -65.42 L 258.88 -28.39 L 258.41 -64.67 Q 258.41 -65.42 259.25 -65.42 L 259.25 -65.42 L 268.56 -65.42 Q 269.12 -65.42 269.12 -64.67 L 269.12 -64.67 L 269.22 -0.56 Q 269.22 0 268.75 0 L 268.75 0 L 260.47 0 L 244.21 -34.59 L 244.87 -0.75 Q 244.87 0 244.02 0 L 244.02 0 Z M 288.49 0 L 277.86 0 Q 277.39 0 277.39 -0.47 L 277.39 -0.47 L 277.49 -65.05 Q 277.49 -65.42 277.86 -65.42 L 277.86 -65.42 L 288.39 -65.42 Q 288.77 -65.42 288.77 -65.05 L 288.77 -65.05 L 288.86 -0.47 Q 288.86 0 288.49 0 L 288.49 0 Z M 310.01 -0.47 L 310.01 -0.47 L 321.67 -65.05 Q 321.76 -65.42 322.14 -65.42 L 322.14 -65.42 L 335.77 -65.42 Q 336.14 -65.42 336.24 -65.05 L 336.24 -65.05 L 347.42 -0.47 Q 347.52 0 347.05 0 L 347.05 0 L 336.61 0 Q 336.24 0 336.14 -0.47 L 336.14 -0.47 L 335.11 -7.33 L 322.33 -7.33 L 321.29 -0.47 Q 321.2 0 320.82 0 L 320.82 0 L 310.39 0 Q 310.01 0 310.01 -0.47 Z M 328.44 -43.8 L 324.21 -17.39 L 333.23 -17.39 L 329.38 -43.8 L 328.81 -47.28 L 328.44 -43.8 Z M 384.08 0 L 353.72 0 Q 353.35 0 353.35 -0.47 L 353.35 -0.47 L 353.44 -64.95 Q 353.44 -65.42 353.91 -65.42 L 353.91 -65.42 L 364.34 -65.42 Q 364.81 -65.42 364.81 -64.95 L 364.81 -64.95 L 364.72 -11.56 L 384.08 -11.56 Q 384.55 -11.56 384.55 -11.09 L 384.55 -11.09 L 384.55 -0.47 Q 384.55 0 384.08 0 L 384.08 0 Z M 401.76 0 L 391.13 0 Q 390.66 0 390.66 -0.47 L 390.66 -0.47 L 390.76 -65.05 Q 390.76 -65.42 391.13 -65.42 L 391.13 -65.42 L 401.66 -65.42 Q 402.04 -65.42 402.04 -65.05 L 402.04 -65.05 L 402.13 -0.47 Q 402.13 0 401.76 0 L 401.76 0 Z" stroke-linecap="round" />
</g>
</svg>