<?xml version="1.0" encoding="UTF-8" standalone="no" ?>
<!DOCTYPE svg PUBLIC "-//W3C//DTD SVG 1.1//EN" "http://www.w3.org/Graphics/SVG/1.1/DTD/svg11.dtd">
<svg xmlns="http://www.w3.org/2000/svg" xmlns:xlink="http://www.w3.org/1999/xlink" version="1.1" width="1280" height="1024" viewBox="0 0 1280 1024" xml:space="preserve">
<desc>Created with Fabric.js 3.6.3</desc>
<defs>
</defs>
<g transform="matrix(1.9662058371735787 0 0 1.9662058371735787 640.2456813819576 512.1966205837173)" id="background-logo"  >
<rect style="stroke: none; stroke-width: 1; stroke-dasharray: none; stroke-linecap: butt; stroke-dashoffset: 0; stroke-linejoin: miter; stroke-miterlimit: 4; fill: rgb(255,255,255); fill-rule: nonzero; opacity: 1;"  paint-order="stroke"  x="-325" y="-260" rx="0" ry="0" width="650" height="520" />
</g>
<g transform="matrix(1.9699870022450665 0 0 1.9699870022450665 640.2456813819576 357.5754332206519)" id="logo-logo"  >
<g style=""  paint-order="stroke"   >
		<g transform="matrix(1.6850729426007574 0 0 -1.6850729426007574 24.299804822653186 -4.169510698587715)"  >
<linearGradient id="SVGID_1_6_805838" gradientUnits="userSpaceOnUse" gradientTransform="matrix(-146.72899 129.09344 129.09344 146.72899 252.61426 69.445312)"  x1="0" y1="0" x2="1" y2="410">
<stop offset="0%" style="stop-color:rgb(96,197,190);stop-opacity: 1"/>
<stop offset="41.739567%" style="stop-color:rgb(72,140,202);stop-opacity: 1"/>
<stop offset="46.968700000000005%" style="stop-color:rgb(72,140,202);stop-opacity: 1"/>
<stop offset="100%" style="stop-color:rgb(58,83,164);stop-opacity: 1"/>
</linearGradient>
<path style="stroke: none; stroke-width: 1; stroke-dasharray: none; stroke-linecap: butt; stroke-dashoffset: 0; stroke-linejoin: miter; stroke-miterlimit: 4; fill: url(#SVGID_1_6_805838); fill-rule: nonzero; opacity: 1;"  paint-order="stroke"  transform=" translate(-178.7065, -130.93)" d="m 197.437 185.416 c 10.824 4.201 32.736 8.436 38.435 -4.48 v 0 c 4.447 -10.072 -2.177 -25.355 -8.813 -32.77 v 0 v 28.779 h -38.815 l -5.522 16.722 h -37.88 l -5.516 -16.722 h -30.355 c -7.214 0 -13.123 -5.902 -13.123 -13.122 v 0 v -60.088 c 0 -12.651 9.805 -20.452 22.641 -21.565 v 0 c 29.495 -2.561 74.533 9.837 96.721 29.6 v 0 C 209.71 98.648 195.954 81.081 171.193 64.787 v 0 c 31.743 5.715 80.634 34.071 90.372 72.379 v 0 c -6.14 -8.678 -14.076 -16.085 -28.151 -23.704 v 0 c 12.951 16.244 22.706 43.156 17.735 63.311 v 0 c -3.048 12.354 -12.334 20.299 -24.933 20.3 v 0 c -8.407 0 -18.287 -3.535 -28.779 -11.657 m -69.26 -48.52 c 0 18.38 14.902 33.276 33.277 33.276 v 0 c 18.38 0 33.283 -14.896 33.283 -33.276 v 0 c 0 -18.378 -14.903 -33.277 -33.283 -33.277 v 0 c -18.375 0 -33.277 14.899 -33.277 33.277 m -20.474 29.151 h 14.814 v -9.524 h -14.814 z" stroke-linecap="round" />
</g>
		<g transform="matrix(1.6850729426007574 0 0 -1.6850729426007574 -4.766860900738607 -14.22349841061515)"  >
<linearGradient id="SVGID_2_7_805839" gradientUnits="userSpaceOnUse" gradientTransform="matrix(-84.654465 74.778015 74.778015 84.654465 211.11328 93.032227)"  x1="0" y1="0" x2="1" y2="0">
<stop offset="0%" style="stop-color:rgb(210,211,212);stop-opacity: 1"/>
<stop offset="100%" style="stop-color:rgb(132,127,127);stop-opacity: 1"/>
</linearGradient>
<path style="stroke: none; stroke-width: 1; stroke-dasharray: none; stroke-linecap: butt; stroke-dashoffset: 0; stroke-linejoin: miter; stroke-miterlimit: 4; fill: url(#SVGID_2_7_805839); fill-rule: nonzero; opacity: 1;"  paint-order="stroke"  transform=" translate(-161.457, -136.8965)" d="m 140.175 136.896 c 0 -11.753 9.529 -21.278 21.279 -21.278 v 0 c 11.755 0 21.285 9.525 21.285 21.278 v 0 c 0 11.752 -9.53 21.279 -21.285 21.279 v 0 c -11.75 0 -21.279 -9.527 -21.279 -21.279" stroke-linecap="round" />
</g>
		<g transform="matrix(1.6850729426007574 0 0 -1.6850729426007574 -80.23811830782029 52.607134731524354)"  >
<linearGradient id="SVGID_3_8_805840" gradientUnits="userSpaceOnUse" gradientTransform="matrix(-114.27882 94.526909 94.526909 114.27882 162.83545 40.451172)"  x1="0" y1="0" x2="1" y2="0">
<stop offset="0%" style="stop-color:rgb(210,211,212);stop-opacity: 1"/>
<stop offset="100%" style="stop-color:rgb(132,127,127);stop-opacity: 1"/>
</linearGradient>
<path style="stroke: none; stroke-width: 1; stroke-dasharray: none; stroke-linecap: butt; stroke-dashoffset: 0; stroke-linejoin: miter; stroke-miterlimit: 4; fill: url(#SVGID_3_8_805840); fill-rule: nonzero; opacity: 1;"  paint-order="stroke"  transform=" translate(-116.66887510696206, -97.23612005289075)" d="M 80.62 67.843 C 98.147 55.65 138.853 56.068 166.331 78.339 v 0 C 143.846 69.401 99.993 63.726 83.051 88.107 v 0 c -7.754 11.169 -7.682 27.169 8.575 46.527 v 0 C 66.711 118.652 56.752 84.441 80.62 67.843" stroke-linecap="round" />
</g>
</g>
</g>
<g transform="matrix(1.9699870022450665 0 0 1.9699870022450665 635.4053617553477 681.1084616789303)" id="text-logo-path"  >
<path style="stroke: none; stroke-width: 0; stroke-dasharray: none; stroke-linecap: butt; stroke-dashoffset: 0; stroke-linejoin: miter; stroke-miterlimit: 4; fill: rgb(150,147,147); fill-rule: nonzero; opacity: 1;"  paint-order="stroke"  transform=" translate(-244.65499999999997, 28.330000000000002)" d="M 1.48 -0.94 L 1.48 -0.94 Q 1.23 -1.52 1.23 -2.13 L 1.23 -2.13 Q 1.23 -2.82 1.55 -3.47 L 1.55 -3.47 L 8.2 -19.22 L 23.81 -55.79 Q 24.17 -56.76 25 -57.27 Q 25.83 -57.78 26.85 -57.78 L 26.85 -57.78 Q 27.82 -57.78 28.64 -57.27 Q 29.45 -56.76 29.81 -55.79 L 29.81 -55.79 Q 35.45 -42.6 40.99 -29.63 Q 46.54 -16.66 52.18 -3.47 L 52.18 -3.47 Q 52.43 -2.82 52.43 -2.2 Q 52.43 -1.59 52.18 -0.94 L 52.18 -0.94 Q 51.67 0.33 50.41 0.83 L 50.41 0.83 Q 49.83 1.12 49.14 1.12 L 49.14 1.12 Q 48.17 1.12 47.32 0.6 Q 46.47 0.07 46.11 -0.9 L 46.11 -0.9 L 40.25 -14.67 L 13.41 -14.67 L 7.55 -0.9 Q 7.05 0.36 5.78 0.87 L 5.78 0.87 Q 5.17 1.12 4.59 1.12 L 4.59 1.12 L 3.25 0.83 Q 1.99 0.33 1.48 -0.94 Z M 26.85 -46.11 L 16.22 -21.25 L 37.43 -21.25 L 26.85 -46.11 Z M 59.76 -2.13 L 59.76 -2.13 L 59.76 -54.02 Q 59.76 -55.36 60.72 -56.31 Q 61.68 -57.27 63.09 -57.27 L 63.09 -57.27 L 73.89 -57.27 Q 76.71 -57.27 79.22 -56.2 Q 81.73 -55.14 83.59 -53.28 Q 85.45 -51.42 86.52 -48.91 Q 87.59 -46.39 87.59 -43.58 L 87.59 -43.58 Q 87.59 -39.13 84.91 -35.45 L 84.91 -35.45 Q 87.8 -34.47 90.17 -32.81 Q 92.54 -31.15 94.23 -28.85 Q 95.93 -26.56 96.91 -23.79 Q 97.88 -21.03 97.88 -17.92 L 97.88 -17.92 Q 97.88 -13.98 96.4 -10.51 Q 94.92 -7.05 92.32 -4.44 Q 89.72 -1.84 86.25 -0.36 Q 82.78 1.12 78.84 1.12 L 78.84 1.12 L 63.09 1.12 Q 61.68 1.12 60.72 0.14 Q 59.76 -0.83 59.76 -2.13 Z M 66.34 -29.88 L 66.34 -5.49 L 78.84 -5.49 Q 81.44 -5.49 83.7 -6.45 Q 85.96 -7.41 87.66 -9.11 Q 89.36 -10.8 90.31 -13.06 Q 91.27 -15.32 91.27 -17.92 L 91.27 -17.92 Q 91.27 -20.52 90.28 -22.73 Q 89.28 -24.93 87.62 -26.52 Q 85.96 -28.11 83.67 -29 Q 81.37 -29.88 78.84 -29.88 L 78.84 -29.88 L 66.34 -29.88 Z M 66.34 -50.77 L 66.34 -36.49 L 74.65 -36.49 Q 75.84 -36.49 76.98 -37.11 Q 78.12 -37.72 79 -38.73 Q 79.89 -39.75 80.45 -40.99 Q 81.01 -42.24 81.01 -43.58 L 81.01 -43.58 Q 81.01 -45.06 80.45 -46.36 Q 79.89 -47.66 78.93 -48.65 Q 77.97 -49.65 76.67 -50.21 Q 75.37 -50.77 73.89 -50.77 L 73.89 -50.77 L 66.34 -50.77 Z M 107.1 -3.4 L 107.1 -3.4 L 107.1 -54.02 Q 107.1 -55.36 108.06 -56.31 Q 109.01 -57.27 110.42 -57.27 L 110.42 -57.27 L 128.27 -57.27 Q 134.13 -57.27 138.93 -54.76 Q 143.74 -52.25 147.13 -48.18 Q 150.53 -44.12 152.39 -38.93 Q 154.25 -33.75 154.25 -28.4 L 154.25 -28.4 Q 154.25 -21.82 151.99 -16.39 Q 149.73 -10.95 146.07 -7.06 Q 142.4 -3.18 137.74 -1.03 Q 133.08 1.12 128.34 1.12 L 128.34 1.12 L 110.13 1.12 Q 109.23 1.12 108.42 0.6 Q 107.6 0.07 107.24 -0.72 L 107.24 -0.72 Q 106.88 -1.41 106.88 -2.17 L 106.88 -2.17 Q 106.88 -2.75 107.1 -3.4 Z M 113.67 -50.77 L 113.67 -5.42 L 128.34 -5.42 Q 132.57 -5.42 136.08 -7.44 Q 139.58 -9.47 142.18 -12.72 Q 144.78 -15.97 146.21 -20.13 Q 147.64 -24.28 147.64 -28.4 L 147.64 -28.4 Q 147.64 -32.63 146.25 -36.66 Q 144.86 -40.69 142.29 -43.83 Q 139.73 -46.97 136.15 -48.87 Q 132.57 -50.77 128.27 -50.77 L 128.27 -50.77 L 113.67 -50.77 Z M 164.87 -2.13 L 164.87 -2.13 L 164.87 -54.02 Q 164.87 -55.36 165.83 -56.31 Q 166.79 -57.27 168.2 -57.27 L 168.2 -57.27 Q 169.54 -57.27 170.49 -56.31 Q 171.45 -55.36 171.45 -54.02 L 171.45 -54.02 L 171.45 -2.13 Q 171.45 -0.79 170.49 0.16 Q 169.54 1.12 168.2 1.12 L 168.2 1.12 Q 166.79 1.12 165.83 0.14 Q 164.87 -0.83 164.87 -2.13 Z M 182.11 -28.4 L 182.11 -28.4 Q 182.11 -34.54 184.44 -39.8 Q 186.77 -45.06 190.8 -48.94 Q 194.83 -52.83 200.19 -55.05 Q 205.56 -57.27 211.63 -57.27 L 211.63 -57.27 Q 217.63 -57.27 222.99 -55.05 Q 228.36 -52.83 232.59 -48.63 L 232.59 -48.63 Q 233.56 -47.66 233.56 -46.36 L 233.56 -46.36 Q 233.56 -45.02 232.59 -44.05 L 232.59 -44.05 Q 231.54 -43 230.2 -43 Q 228.87 -43 227.93 -44.05 L 227.93 -44.05 Q 224.6 -47.3 220.45 -49.03 Q 216.29 -50.77 211.63 -50.77 L 211.63 -50.77 Q 206.9 -50.77 202.72 -49.07 Q 198.55 -47.37 195.44 -44.37 Q 192.33 -41.37 190.51 -37.27 Q 188.69 -33.17 188.69 -28.4 L 188.69 -28.4 Q 188.69 -23.67 190.51 -19.49 Q 192.33 -15.32 195.44 -12.21 Q 198.55 -9.11 202.72 -7.3 Q 206.9 -5.49 211.63 -5.49 L 211.63 -5.49 Q 215.93 -5.49 219.85 -6.96 Q 223.77 -8.42 226.95 -11.24 L 226.95 -11.24 L 226.95 -25.15 L 211.99 -25.15 Q 210.58 -25.15 209.62 -26.12 Q 208.67 -27.1 208.67 -28.4 L 208.67 -28.4 Q 208.67 -29.81 209.62 -30.79 Q 210.58 -31.76 211.99 -31.76 L 211.99 -31.76 L 230.2 -31.76 Q 231.61 -31.76 232.57 -30.79 Q 233.53 -29.81 233.53 -28.4 L 233.53 -28.4 L 233.53 -9.83 Q 233.56 -8.53 232.59 -7.55 L 232.59 -7.55 Q 228.36 -3.32 222.99 -1.1 Q 217.63 1.12 211.63 1.12 L 211.63 1.12 Q 205.49 1.12 200.12 -1.21 Q 194.76 -3.54 190.76 -7.53 Q 186.77 -11.53 184.44 -16.89 Q 182.11 -22.26 182.11 -28.4 Z M 241.15 -0.94 L 241.15 -0.94 Q 240.9 -1.52 240.9 -2.13 L 240.9 -2.13 Q 240.9 -2.82 241.22 -3.47 L 241.22 -3.47 L 247.87 -19.22 L 263.48 -55.79 Q 263.84 -56.76 264.67 -57.27 Q 265.5 -57.78 266.52 -57.78 L 266.52 -57.78 Q 267.49 -57.78 268.3 -57.27 Q 269.12 -56.76 269.48 -55.79 L 269.48 -55.79 Q 275.12 -42.6 280.66 -29.63 Q 286.21 -16.66 291.84 -3.47 L 291.84 -3.47 Q 292.1 -2.82 292.1 -2.2 Q 292.1 -1.59 291.84 -0.94 L 291.84 -0.94 Q 291.34 0.33 290.07 0.83 L 290.07 0.83 Q 289.5 1.12 288.81 1.12 L 288.81 1.12 Q 287.83 1.12 286.98 0.6 Q 286.14 0.07 285.77 -0.9 L 285.77 -0.9 L 279.92 -14.67 L 253.07 -14.67 L 247.22 -0.9 Q 246.71 0.36 245.45 0.87 L 245.45 0.87 Q 244.84 1.12 244.26 1.12 L 244.26 1.12 L 242.92 0.83 Q 241.66 0.33 241.15 -0.94 Z M 266.52 -46.11 L 255.89 -21.25 L 277.1 -21.25 L 266.52 -46.11 Z M 299.43 -2.13 L 299.43 -2.13 L 299.43 -54.02 Q 299.43 -55.36 300.39 -56.31 Q 301.35 -57.27 302.68 -57.27 L 302.68 -57.27 Q 304.53 -57.27 305.5 -55.79 L 305.5 -55.79 L 332.21 -13.48 L 332.21 -54.02 Q 332.21 -55.36 333.13 -56.31 Q 334.05 -57.27 335.46 -57.27 L 335.46 -57.27 Q 336.79 -57.27 337.75 -56.31 Q 338.71 -55.36 338.71 -54.02 L 338.71 -54.02 L 338.71 -2.13 Q 338.71 -0.79 337.75 0.16 Q 336.79 1.12 335.46 1.12 L 335.46 1.12 Q 333.61 1.12 332.67 -0.43 L 332.67 -0.43 L 305.94 -42.78 L 305.94 -2.13 Q 305.94 -0.79 305.02 0.16 Q 304.09 1.12 302.68 1.12 L 302.68 1.12 Q 301.35 1.12 300.39 0.14 Q 299.43 -0.83 299.43 -2.13 Z M 350.99 -2.13 L 350.99 -2.13 L 350.99 -54.02 Q 350.99 -55.36 351.95 -56.31 Q 352.91 -57.27 354.32 -57.27 L 354.32 -57.27 Q 355.66 -57.27 356.61 -56.31 Q 357.57 -55.36 357.57 -54.02 L 357.57 -54.02 L 357.57 -2.13 Q 357.57 -0.79 356.61 0.16 Q 355.66 1.12 354.32 1.12 L 354.32 1.12 Q 352.91 1.12 351.95 0.14 Q 350.99 -0.83 350.99 -2.13 Z M 391.14 -0.94 L 391.14 -0.94 Q 390.88 -1.52 390.88 -2.13 L 390.88 -2.13 Q 390.88 -2.82 391.21 -3.47 L 391.21 -3.47 L 397.86 -19.22 L 413.47 -55.79 Q 413.83 -56.76 414.66 -57.27 Q 415.49 -57.78 416.5 -57.78 L 416.5 -57.78 Q 417.48 -57.78 418.29 -57.27 Q 419.1 -56.76 419.47 -55.79 L 419.47 -55.79 Q 425.1 -42.6 430.65 -29.63 Q 436.2 -16.66 441.83 -3.47 L 441.83 -3.47 Q 442.08 -2.82 442.08 -2.2 Q 442.08 -1.59 441.83 -0.94 L 441.83 -0.94 Q 441.33 0.33 440.06 0.83 L 440.06 0.83 Q 439.48 1.12 438.8 1.12 L 438.8 1.12 Q 437.82 1.12 436.97 0.6 Q 436.12 0.07 435.76 -0.9 L 435.76 -0.9 L 429.91 -14.67 L 403.06 -14.67 L 397.21 -0.9 Q 396.7 0.36 395.44 0.87 L 395.44 0.87 Q 394.82 1.12 394.25 1.12 L 394.25 1.12 L 392.91 0.83 Q 391.64 0.33 391.14 -0.94 Z M 416.5 -46.11 L 405.88 -21.25 L 427.09 -21.25 L 416.5 -46.11 Z M 449.42 -2.13 L 449.42 -2.13 L 449.42 -54.02 Q 449.42 -55.43 450.38 -56.35 Q 451.33 -57.27 452.67 -57.27 L 452.67 -57.27 Q 454.08 -57.27 455 -56.35 Q 455.92 -55.43 455.92 -54.02 L 455.92 -54.02 L 455.92 -5.42 L 472.44 -5.42 Q 473.85 -5.42 474.8 -4.44 Q 475.76 -3.47 475.76 -2.13 L 475.76 -2.13 Q 475.76 -0.79 474.8 0.16 Q 473.85 1.12 472.44 1.12 L 472.44 1.12 L 452.67 1.12 Q 451.33 1.12 450.38 0.14 Q 449.42 -0.83 449.42 -2.13 Z M 481.51 -2.13 L 481.51 -2.13 L 481.51 -54.02 Q 481.51 -55.36 482.46 -56.31 Q 483.42 -57.27 484.83 -57.27 L 484.83 -57.27 Q 486.17 -57.27 487.12 -56.31 Q 488.08 -55.36 488.08 -54.02 L 488.08 -54.02 L 488.08 -2.13 Q 488.08 -0.79 487.12 0.16 Q 486.17 1.12 484.83 1.12 L 484.83 1.12 Q 483.42 1.12 482.46 0.14 Q 481.51 -0.83 481.51 -2.13 Z" stroke-linecap="round" />
</g>
</svg>